<?xml version="1.0" encoding="UTF-8"?>
<svg version="1.1" xmlns="http://www.w3.org/2000/svg" width="534" height="534">
<path d="M0 0 C5.09705505 2.95261117 9.39952654 6.69460171 13.70703125 10.68359375 C16.69795141 13.35142069 19.82054421 15.80128369 22.98828125 18.25390625 C27.66384238 21.88255919 32.24426083 25.59017443 36.73828125 29.44140625 C42.88343521 34.7011698 49.21827235 39.69220188 55.60009766 44.66015625 C59.50863922 47.7170901 63.37149823 50.83194248 67.23828125 53.94140625 C71.05099916 50.76414133 74.69344596 47.54140725 78.17578125 44.00390625 C81.41795864 40.71165662 84.79293056 37.66380626 88.30859375 34.66796875 C90.22333051 32.95478322 91.9337249 31.14046497 93.67578125 29.25390625 C98.67026606 24.23682196 104.22836892 21.79110206 111.30078125 21.37890625 C116.51580744 21.62994012 120.52150055 23.24771114 124.23828125 26.94140625 C129.31309953 34.22764709 133.01602402 42.30510462 136.92578125 50.25390625 C137.93996003 52.30997361 138.95534942 54.36542112 139.97309875 56.41972351 C140.60196255 57.68961983 141.22868489 58.96057955 141.85295105 60.23274231 C143.18879515 62.93514746 144.56208668 65.4271144 146.23828125 67.94140625 C150.41347873 66.65242688 154.12612143 65.07398331 157.96484375 62.9921875 C159.06570313 62.39849365 160.1665625 61.8047998 161.30078125 61.19311523 C162.48828945 60.54672731 163.67578924 59.90032392 164.86328125 59.25390625 C166.09997953 58.58549891 167.33696376 57.91762042 168.57421875 57.25024414 C171.15513973 55.85745392 173.73480523 54.46238049 176.31347656 53.06542969 C182.01857552 49.97606812 187.73347905 46.90501724 193.4508667 43.83847046 C195.18383801 42.90813382 196.91542844 41.97522638 198.64697266 41.04223633 C201.83728338 39.32878054 205.03561802 37.63164539 208.23828125 35.94140625 C209.31303711 35.36688721 210.38779297 34.79236816 211.49511719 34.20043945 C212.53958008 33.65605225 213.58404297 33.11166504 214.66015625 32.55078125 C215.5840918 32.06448242 216.50802734 31.57818359 217.45996094 31.07714844 C223.05619686 28.78947801 228.95260417 28.65002073 234.59375 30.8671875 C240.17887399 34.08413509 244.08782044 38.22213526 246.61328125 44.19140625 C248.23092563 53.89727256 245.00667586 62.21754961 241.55078125 71.19140625 C241.06863774 72.46973737 240.58779598 73.7485601 240.1081543 75.02783203 C239.06523223 77.80654558 238.0165746 80.58300789 236.96484375 83.35839844 C234.09154431 90.96153342 231.30454284 98.59682616 228.50253296 106.22644043 C226.97620116 110.37998926 225.44512157 114.53178564 223.9140625 118.68359375 C223.39232592 120.0987926 222.87059655 121.51399411 222.34887695 122.92919922 C221.98238037 123.92322754 221.61588379 124.91725586 221.23828125 125.94140625 C222.42550781 126.30492187 223.61273438 126.6684375 224.8359375 127.04296875 C230.98752055 129.09550164 236.85850017 131.77257864 242.75805664 134.44726562 C244.6665938 135.31224236 246.57811712 136.17031469 248.49023438 137.02734375 C271.01146218 147.15374525 271.01146218 147.15374525 274.48828125 154.62890625 C276.62658742 164.07309184 274.85974465 170.02157783 269.91650391 178.10205078 C268.42225532 180.43973567 266.89774931 182.75493344 265.36328125 185.06640625 C264.21405549 186.81849364 263.06564946 188.57111891 261.91796875 190.32421875 C261.32081055 191.23461914 260.72365234 192.14501953 260.10839844 193.08300781 C256.87793691 198.02063751 253.67605708 202.97613388 250.48828125 207.94140625 C249.5758667 209.34737061 249.5758667 209.34737061 248.64501953 210.78173828 C248.08282715 211.65942871 247.52063477 212.53711914 246.94140625 213.44140625 C246.19358887 214.6015625 246.19358887 214.6015625 245.43066406 215.78515625 C243.80795712 218.70527547 243.80795712 218.70527547 243.23828125 221.94140625 C244.94006924 224.34839551 244.94006924 224.34839551 247.48339844 226.69067383 C247.94660492 227.14818527 248.4098114 227.60569672 248.88705444 228.07707214 C249.89594447 229.07026948 250.91061794 230.0576178 251.9302597 231.03977394 C253.54716187 232.59750377 255.14837999 234.16991365 256.74639893 235.74699402 C260.14660737 239.09682248 263.56670493 242.42592892 266.98828125 245.75390625 C270.9396518 249.60114703 274.88251302 253.45663082 278.80997467 257.32828331 C280.38309901 258.87188798 281.96820558 260.40239884 283.55438232 261.93257141 C284.52868091 262.88912513 285.50244338 263.84622531 286.47558594 264.80395508 C287.32465515 265.62906082 288.17372437 266.45416656 289.04852295 267.30427551 C293.04406802 272.11611923 294.88780972 277.27780817 294.65234375 283.5390625 C293.51652917 290.1289301 290.27934796 295.66675834 285.02441406 299.80273438 C281.65956681 301.94784749 277.98284871 302.9574924 274.17578125 304.06640625 C273.26272217 304.34427979 272.34966309 304.62215332 271.40893555 304.90844727 C269.28804848 305.55052567 267.16488391 306.18510795 265.04003906 306.81396484 C261.41679068 307.88846786 257.79895035 308.97939498 254.18205261 310.07501221 C249.97338607 311.34882844 245.76213042 312.61399311 241.55078125 313.87890625 C240.71707001 314.13005188 239.88335876 314.38119751 239.02438354 314.63995361 C236.63474879 315.35818215 234.24345688 316.07058801 231.8515625 316.78125 C230.76541153 317.10885063 230.76541153 317.10885063 229.65731812 317.44306946 C226.74341516 318.30336149 224.29476614 318.94140625 221.23828125 318.94140625 C221.7801709 320.47619629 221.7801709 320.47619629 222.33300781 322.04199219 C225.67863387 331.52626733 229.0034425 341.01759855 232.30519104 350.51724243 C233.89276452 355.08409199 235.48544251 359.6489305 237.09521484 364.20800781 C238.53982812 368.30080947 239.96486199 372.39992377 241.37561035 376.5045166 C241.90449491 378.03259357 242.4402734 379.55830374 242.98327637 381.0814209 C246.25062418 390.26280538 249.0010979 398.28468695 245.07421875 407.74609375 C241.17916415 413.26582354 237.77641584 417.01075409 230.99053955 418.40235901 C224.74204946 419.17735071 220.34836265 418.52513485 214.53515625 416.21875 C213.69966248 415.90727524 212.8641687 415.59580048 212.00335693 415.27488708 C210.12309018 414.57184023 208.24623792 413.85961541 206.37231445 413.13983154 C202.95589633 411.83342487 199.52747136 410.56288336 196.09570312 409.29736328 C188.89419985 406.63998021 181.70358325 403.9540459 174.51483154 401.26239014 C171.08858454 399.98003699 167.66143627 398.70009694 164.234375 397.41992188 C157.56815264 394.92937453 150.90289187 392.43626372 144.23828125 389.94140625 C144.09946533 391.13685059 143.96064941 392.33229492 143.81762695 393.56396484 C143.09497169 399.3285723 141.76186894 404.91704292 140.42578125 410.56640625 C140.17763672 411.67242187 139.92949219 412.7784375 139.67382812 413.91796875 C137.68063007 422.35736206 135.56273399 427.81428933 128.23828125 432.94140625 C123.16388531 435.95979694 117.96336883 435.67857156 112.23828125 434.94140625 C107.90590454 433.52637098 104.11384896 431.30040365 100.23828125 428.94140625 C99.5102832 428.50103027 98.78228516 428.0606543 98.03222656 427.60693359 C89.61187373 422.48617224 81.26629379 417.24945681 72.98046875 411.9140625 C70.92079005 410.61033398 68.86089931 409.30694039 66.80078125 408.00390625 C65.83615967 407.37033203 64.87153809 406.73675781 63.87768555 406.08398438 C58.88430535 402.77579151 58.88430535 402.77579151 53.1484375 402.21484375 C52.18808594 402.78460938 51.22773438 403.354375 50.23828125 403.94140625 C49.26242065 404.50251099 49.26242065 404.50251099 48.2668457 405.07495117 C45.84617006 406.49854975 43.48114872 407.99415866 41.11328125 409.50390625 C39.24428898 410.67835644 37.37445093 411.85146141 35.50390625 413.0234375 C33.99860352 413.96823975 33.99860352 413.96823975 32.46289062 414.93212891 C25.42531341 419.31729399 18.32595186 423.6023956 11.22680664 427.88696289 C3.79328545 432.3747032 3.79328545 432.3747032 -3.5625 436.98828125 C-16.55043253 445.24311145 -16.55043253 445.24311145 -25.12890625 443.4453125 C-31.9377584 441.46962917 -36.20492723 438.47738549 -39.71166992 432.19287109 C-41.88242659 427.5384377 -43.13558839 422.56348529 -44.51171875 417.62890625 C-44.82753906 416.53255859 -45.14335937 415.43621094 -45.46875 414.30664062 C-47.76171875 406.26139746 -47.76171875 406.26139746 -47.76171875 403.94140625 C-56.73460898 409.81390758 -65.5172662 415.9436158 -74.29296875 422.10546875 C-79.87567991 426.02503073 -85.47329701 429.92292596 -91.07421875 433.81640625 C-92.03368408 434.48349609 -92.99314941 435.15058594 -93.98168945 435.83789062 C-95.93386009 437.19507211 -97.88609006 438.55216825 -99.83837891 439.90917969 C-103.69121445 442.58756645 -107.54316299 445.26722705 -111.39501953 447.94702148 C-113.3034819 449.27475348 -115.21201036 450.60239047 -117.12060547 451.92993164 C-122.0006291 455.32431466 -126.87987267 458.71981048 -131.7578125 462.1171875 C-140.76020479 468.38580351 -149.76488184 474.64981927 -158.81787109 480.84521484 C-162.54386977 483.40015785 -166.24887421 485.98281709 -169.94140625 488.5859375 C-171.28102417 489.52928955 -171.28102417 489.52928955 -172.64770508 490.49169922 C-174.38384887 491.71585242 -176.1181761 492.94258757 -177.8503418 494.17236328 C-193.57559279 505.25776714 -193.57559279 505.25776714 -203.76171875 503.94140625 C-209.69950038 502.19395099 -213.87319022 499.51279147 -217.38671875 494.37890625 C-220.40246176 488.52888328 -221.04206226 483.39083845 -219.76171875 476.94140625 C-217.92580446 471.97763798 -215.40173599 467.50616512 -212.76171875 462.94140625 C-211.89110071 461.40541602 -211.02135596 459.86893057 -210.15234375 458.33203125 C-208.15955472 454.82269774 -206.14971076 451.32364963 -204.1328125 447.828125 C-200.46149058 441.44533932 -196.89023137 435.00845674 -193.32421875 428.56640625 C-188.12779921 419.18565091 -182.88985001 409.83034784 -177.60351562 400.5 C-173.65749561 393.53303425 -169.73444084 386.5535244 -165.82421875 379.56640625 C-164.96401123 378.02944092 -164.96401123 378.02944092 -164.08642578 376.46142578 C-161.33973144 371.55239113 -158.59456851 366.64250201 -155.85023499 361.73214722 C-154.88210186 360.0001622 -153.91358729 358.2683904 -152.94506836 356.53662109 C-151.72644891 354.35764109 -150.50847972 352.17829725 -149.29125977 349.99853516 C-148.74139404 349.01546387 -148.19152832 348.03239258 -147.625 347.01953125 C-146.90244019 345.72644043 -146.90244019 345.72644043 -146.1652832 344.40722656 C-144.73516196 341.89475055 -143.25862249 339.41457562 -141.76171875 336.94140625 C-142.64988281 336.8434375 -143.53804688 336.74546875 -144.453125 336.64453125 C-152.92198971 335.65322115 -161.34752696 334.44793152 -169.76171875 333.06640625 C-170.72795166 332.91719727 -171.69418457 332.76798828 -172.68969727 332.61425781 C-179.34364848 331.48828424 -185.66912308 329.9946058 -190.6015625 325.125 C-190.96378906 324.54878906 -191.32601562 323.97257812 -191.69921875 323.37890625 C-192.07949219 322.80011719 -192.45976562 322.22132813 -192.8515625 321.625 C-194.47829759 318.61588918 -194.94203858 315.99097441 -195.01171875 312.62890625 C-195.0375 311.89027344 -195.06328125 311.15164063 -195.08984375 310.390625 C-194.11310969 303.10000291 -188.33161533 296.8462107 -184.19921875 291.00390625 C-177.924088 282.06468436 -171.75990949 273.06846091 -165.76171875 263.94140625 C-178.21205024 257.21233543 -190.84154598 250.92923118 -203.61987305 244.85302734 C-226.07440959 234.13390128 -226.07440959 234.13390128 -230.19921875 224.62890625 C-231.12148192 218.58295878 -230.91559442 213.29531262 -228.19921875 207.75390625 C-222.50129131 201.17937459 -215.94772263 196.65895547 -208.55761719 192.14794922 C-202.35572095 188.35567964 -196.30132271 184.36140068 -190.26171875 180.31640625 C-189.32303955 179.68790771 -188.38436035 179.05940918 -187.41723633 178.41186523 C-185.19747973 176.92356067 -182.97890133 175.43354167 -180.76171875 173.94140625 C-181.48089478 172.64722778 -181.48089478 172.64722778 -182.21459961 171.3269043 C-183.99319281 168.12470223 -185.76845789 164.92066544 -187.54272461 161.71606445 C-188.31102329 160.32949376 -189.08022296 158.94342191 -189.8503418 157.55786133 C-190.95729165 155.56592256 -192.06098626 153.57221085 -193.1640625 151.578125 C-193.50888168 150.95926926 -193.85370087 150.34041351 -194.20896912 149.70280457 C-197.57211701 143.60804092 -198.48854378 138.84112556 -197.76171875 131.94140625 C-195.99619208 126.11012387 -192.86335176 122.31040918 -187.76171875 118.94140625 C-180.9408158 116.03249176 -173.72944971 114.90106711 -166.44921875 113.75390625 C-164.84336914 113.48803711 -164.84336914 113.48803711 -163.20507812 113.21679688 C-158.97987794 112.53155777 -155.05263539 111.94140625 -150.76171875 111.94140625 C-150.97025482 111.20748657 -151.17879089 110.47356689 -151.39364624 109.71740723 C-153.36623973 102.77423255 -155.33762109 95.83071537 -157.30766869 88.88681793 C-158.32033785 85.31758661 -159.33346223 81.74848586 -160.34765625 78.1796875 C-161.32782575 74.73055087 -162.30676118 71.28106611 -163.28487015 67.8313446 C-163.65678314 66.52043896 -164.02912797 65.20965575 -164.40192795 63.89900208 C-171.34582408 39.48249116 -171.34582408 39.48249116 -167.59765625 31.4453125 C-163.94153215 25.49189117 -160.24798197 22.1090638 -153.48046875 20.34765625 C-142.34255641 18.51483523 -132.00623151 25.1039299 -122.32421875 29.87890625 C-119.93831005 31.04207398 -117.55180437 32.20389329 -115.1640625 33.36328125 C-114.555625 33.6591362 -113.9471875 33.95499115 -113.3203125 34.2598114 C-106.71356584 37.46460826 -100.0533106 40.55060528 -93.38671875 43.62890625 C-81.80376592 48.98134683 -70.26605605 54.42212659 -58.76171875 59.94140625 C-53.9667657 53.01241743 -49.73872813 45.82483435 -45.57421875 38.50390625 C-44.24741755 36.19583689 -42.91963384 33.88837547 -41.58984375 31.58203125 C-40.94080078 30.45603516 -40.29175781 29.33003906 -39.62304688 28.16992188 C-39.00880859 27.10451172 -38.39457031 26.03910156 -37.76171875 24.94140625 C-37.22224609 24.00232422 -36.68277344 23.06324219 -36.12695312 22.09570312 C-28.02580352 8.06842073 -18.96499382 -7.26946722 0 0 Z " fill="#8CAFBE" transform="translate(235.76171875,14.05859375)"/>
<path d="M0 0 C5.09705505 2.95261117 9.39952654 6.69460171 13.70703125 10.68359375 C16.69795141 13.35142069 19.82054421 15.80128369 22.98828125 18.25390625 C27.66384238 21.88255919 32.24426083 25.59017443 36.73828125 29.44140625 C42.88343521 34.7011698 49.21827235 39.69220188 55.60009766 44.66015625 C59.50863922 47.7170901 63.37149823 50.83194248 67.23828125 53.94140625 C71.05099916 50.76414133 74.69344596 47.54140725 78.17578125 44.00390625 C81.41795864 40.71165662 84.79293056 37.66380626 88.30859375 34.66796875 C90.22333051 32.95478322 91.9337249 31.14046497 93.67578125 29.25390625 C98.67026606 24.23682196 104.22836892 21.79110206 111.30078125 21.37890625 C116.51580744 21.62994012 120.52150055 23.24771114 124.23828125 26.94140625 C129.31309953 34.22764709 133.01602402 42.30510462 136.92578125 50.25390625 C137.93996003 52.30997361 138.95534942 54.36542112 139.97309875 56.41972351 C140.60196255 57.68961983 141.22868489 58.96057955 141.85295105 60.23274231 C143.18879515 62.93514746 144.56208668 65.4271144 146.23828125 67.94140625 C150.41347873 66.65242688 154.12612143 65.07398331 157.96484375 62.9921875 C159.06570313 62.39849365 160.1665625 61.8047998 161.30078125 61.19311523 C162.48828945 60.54672731 163.67578924 59.90032392 164.86328125 59.25390625 C166.09997953 58.58549891 167.33696376 57.91762042 168.57421875 57.25024414 C171.15513973 55.85745392 173.73480523 54.46238049 176.31347656 53.06542969 C182.01857552 49.97606812 187.73347905 46.90501724 193.4508667 43.83847046 C195.18383801 42.90813382 196.91542844 41.97522638 198.64697266 41.04223633 C201.83728338 39.32878054 205.03561802 37.63164539 208.23828125 35.94140625 C209.31303711 35.36688721 210.38779297 34.79236816 211.49511719 34.20043945 C212.53958008 33.65605225 213.58404297 33.11166504 214.66015625 32.55078125 C215.5840918 32.06448242 216.50802734 31.57818359 217.45996094 31.07714844 C223.05619686 28.78947801 228.95260417 28.65002073 234.59375 30.8671875 C240.17887399 34.08413509 244.08782044 38.22213526 246.61328125 44.19140625 C248.23092563 53.89727256 245.00667586 62.21754961 241.55078125 71.19140625 C241.06863774 72.46973737 240.58779598 73.7485601 240.1081543 75.02783203 C239.06523223 77.80654558 238.0165746 80.58300789 236.96484375 83.35839844 C234.09154431 90.96153342 231.30454284 98.59682616 228.50253296 106.22644043 C226.97620116 110.37998926 225.44512157 114.53178564 223.9140625 118.68359375 C223.39232592 120.0987926 222.87059655 121.51399411 222.34887695 122.92919922 C221.98238037 123.92322754 221.61588379 124.91725586 221.23828125 125.94140625 C222.42550781 126.30492187 223.61273438 126.6684375 224.8359375 127.04296875 C230.98752055 129.09550164 236.85850017 131.77257864 242.75805664 134.44726562 C244.6665938 135.31224236 246.57811712 136.17031469 248.49023438 137.02734375 C271.01146218 147.15374525 271.01146218 147.15374525 274.48828125 154.62890625 C276.62658742 164.07309184 274.85974465 170.02157783 269.91650391 178.10205078 C268.42225532 180.43973567 266.89774931 182.75493344 265.36328125 185.06640625 C264.21405549 186.81849364 263.06564946 188.57111891 261.91796875 190.32421875 C261.32081055 191.23461914 260.72365234 192.14501953 260.10839844 193.08300781 C256.87793691 198.02063751 253.67605708 202.97613388 250.48828125 207.94140625 C249.5758667 209.34737061 249.5758667 209.34737061 248.64501953 210.78173828 C248.08282715 211.65942871 247.52063477 212.53711914 246.94140625 213.44140625 C246.19358887 214.6015625 246.19358887 214.6015625 245.43066406 215.78515625 C243.80795712 218.70527547 243.80795712 218.70527547 243.23828125 221.94140625 C244.94006924 224.34839551 244.94006924 224.34839551 247.48339844 226.69067383 C247.94660492 227.14818527 248.4098114 227.60569672 248.88705444 228.07707214 C249.89594447 229.07026948 250.91061794 230.0576178 251.9302597 231.03977394 C253.54716187 232.59750377 255.14837999 234.16991365 256.74639893 235.74699402 C260.14660737 239.09682248 263.56670493 242.42592892 266.98828125 245.75390625 C270.9396518 249.60114703 274.88251302 253.45663082 278.80997467 257.32828331 C280.38309901 258.87188798 281.96820558 260.40239884 283.55438232 261.93257141 C284.52868091 262.88912513 285.50244338 263.84622531 286.47558594 264.80395508 C287.32465515 265.62906082 288.17372437 266.45416656 289.04852295 267.30427551 C293.04406802 272.11611923 294.88780972 277.27780817 294.65234375 283.5390625 C293.51652917 290.1289301 290.27934796 295.66675834 285.02441406 299.80273438 C281.65956681 301.94784749 277.98284871 302.9574924 274.17578125 304.06640625 C273.26272217 304.34427979 272.34966309 304.62215332 271.40893555 304.90844727 C269.28804848 305.55052567 267.16488391 306.18510795 265.04003906 306.81396484 C261.41679068 307.88846786 257.79895035 308.97939498 254.18205261 310.07501221 C249.97338607 311.34882844 245.76213042 312.61399311 241.55078125 313.87890625 C240.71707001 314.13005188 239.88335876 314.38119751 239.02438354 314.63995361 C236.63474879 315.35818215 234.24345688 316.07058801 231.8515625 316.78125 C230.76541153 317.10885063 230.76541153 317.10885063 229.65731812 317.44306946 C226.74341516 318.30336149 224.29476614 318.94140625 221.23828125 318.94140625 C221.7801709 320.47619629 221.7801709 320.47619629 222.33300781 322.04199219 C225.67863387 331.52626733 229.0034425 341.01759855 232.30519104 350.51724243 C233.89276452 355.08409199 235.48544251 359.6489305 237.09521484 364.20800781 C238.53982812 368.30080947 239.96486199 372.39992377 241.37561035 376.5045166 C241.90449491 378.03259357 242.4402734 379.55830374 242.98327637 381.0814209 C246.25062418 390.26280538 249.0010979 398.28468695 245.07421875 407.74609375 C241.17916415 413.26582354 237.77641584 417.01075409 230.99053955 418.40235901 C224.74204946 419.17735071 220.34836265 418.52513485 214.53515625 416.21875 C213.69966248 415.90727524 212.8641687 415.59580048 212.00335693 415.27488708 C210.12309018 414.57184023 208.24623792 413.85961541 206.37231445 413.13983154 C202.95589633 411.83342487 199.52747136 410.56288336 196.09570312 409.29736328 C188.89419985 406.63998021 181.70358325 403.9540459 174.51483154 401.26239014 C171.08858454 399.98003699 167.66143627 398.70009694 164.234375 397.41992188 C157.56815264 394.92937453 150.90289187 392.43626372 144.23828125 389.94140625 C144.09946533 391.13685059 143.96064941 392.33229492 143.81762695 393.56396484 C143.09497169 399.3285723 141.76186894 404.91704292 140.42578125 410.56640625 C140.17763672 411.67242187 139.92949219 412.7784375 139.67382812 413.91796875 C137.68063007 422.35736206 135.56273399 427.81428933 128.23828125 432.94140625 C123.16388531 435.95979694 117.96336883 435.67857156 112.23828125 434.94140625 C107.90590454 433.52637098 104.11384896 431.30040365 100.23828125 428.94140625 C99.5102832 428.50103027 98.78228516 428.0606543 98.03222656 427.60693359 C89.61187373 422.48617224 81.26629379 417.24945681 72.98046875 411.9140625 C70.92079005 410.61033398 68.86089931 409.30694039 66.80078125 408.00390625 C65.83615967 407.37033203 64.87153809 406.73675781 63.87768555 406.08398438 C58.88430535 402.77579151 58.88430535 402.77579151 53.1484375 402.21484375 C52.18808594 402.78460938 51.22773438 403.354375 50.23828125 403.94140625 C49.26242065 404.50251099 49.26242065 404.50251099 48.2668457 405.07495117 C45.84617006 406.49854975 43.48114872 407.99415866 41.11328125 409.50390625 C39.24428898 410.67835644 37.37445093 411.85146141 35.50390625 413.0234375 C33.99860352 413.96823975 33.99860352 413.96823975 32.46289062 414.93212891 C25.42531341 419.31729399 18.32595186 423.6023956 11.22680664 427.88696289 C3.79328545 432.3747032 3.79328545 432.3747032 -3.5625 436.98828125 C-16.55043253 445.24311145 -16.55043253 445.24311145 -25.12890625 443.4453125 C-31.9377584 441.46962917 -36.20492723 438.47738549 -39.71166992 432.19287109 C-41.88242659 427.5384377 -43.13558839 422.56348529 -44.51171875 417.62890625 C-44.82753906 416.53255859 -45.14335937 415.43621094 -45.46875 414.30664062 C-47.76171875 406.26139746 -47.76171875 406.26139746 -47.76171875 403.94140625 C-56.73460898 409.81390758 -65.5172662 415.9436158 -74.29296875 422.10546875 C-79.87567991 426.02503073 -85.47329701 429.92292596 -91.07421875 433.81640625 C-92.03368408 434.48349609 -92.99314941 435.15058594 -93.98168945 435.83789062 C-95.93386009 437.19507211 -97.88609006 438.55216825 -99.83837891 439.90917969 C-103.69121445 442.58756645 -107.54316299 445.26722705 -111.39501953 447.94702148 C-113.3034819 449.27475348 -115.21201036 450.60239047 -117.12060547 451.92993164 C-122.0006291 455.32431466 -126.87987267 458.71981048 -131.7578125 462.1171875 C-140.76020479 468.38580351 -149.76488184 474.64981927 -158.81787109 480.84521484 C-162.54386977 483.40015785 -166.24887421 485.98281709 -169.94140625 488.5859375 C-171.28102417 489.52928955 -171.28102417 489.52928955 -172.64770508 490.49169922 C-174.38384887 491.71585242 -176.1181761 492.94258757 -177.8503418 494.17236328 C-193.57559279 505.25776714 -193.57559279 505.25776714 -203.76171875 503.94140625 C-209.69950038 502.19395099 -213.87319022 499.51279147 -217.38671875 494.37890625 C-220.40246176 488.52888328 -221.04206226 483.39083845 -219.76171875 476.94140625 C-217.92580446 471.97763798 -215.40173599 467.50616512 -212.76171875 462.94140625 C-211.89110071 461.40541602 -211.02135596 459.86893057 -210.15234375 458.33203125 C-208.15955472 454.82269774 -206.14971076 451.32364963 -204.1328125 447.828125 C-200.46149058 441.44533932 -196.89023137 435.00845674 -193.32421875 428.56640625 C-188.12779921 419.18565091 -182.88985001 409.83034784 -177.60351562 400.5 C-173.65749561 393.53303425 -169.73444084 386.5535244 -165.82421875 379.56640625 C-164.96401123 378.02944092 -164.96401123 378.02944092 -164.08642578 376.46142578 C-161.33973144 371.55239113 -158.59456851 366.64250201 -155.85023499 361.73214722 C-154.88210186 360.0001622 -153.91358729 358.2683904 -152.94506836 356.53662109 C-151.72644891 354.35764109 -150.50847972 352.17829725 -149.29125977 349.99853516 C-148.74139404 349.01546387 -148.19152832 348.03239258 -147.625 347.01953125 C-146.90244019 345.72644043 -146.90244019 345.72644043 -146.1652832 344.40722656 C-144.73516196 341.89475055 -143.25862249 339.41457562 -141.76171875 336.94140625 C-142.64988281 336.8434375 -143.53804688 336.74546875 -144.453125 336.64453125 C-152.92198971 335.65322115 -161.34752696 334.44793152 -169.76171875 333.06640625 C-170.72795166 332.91719727 -171.69418457 332.76798828 -172.68969727 332.61425781 C-179.34364848 331.48828424 -185.66912308 329.9946058 -190.6015625 325.125 C-190.96378906 324.54878906 -191.32601562 323.97257812 -191.69921875 323.37890625 C-192.07949219 322.80011719 -192.45976562 322.22132813 -192.8515625 321.625 C-194.47829759 318.61588918 -194.94203858 315.99097441 -195.01171875 312.62890625 C-195.0375 311.89027344 -195.06328125 311.15164063 -195.08984375 310.390625 C-194.11310969 303.10000291 -188.33161533 296.8462107 -184.19921875 291.00390625 C-177.924088 282.06468436 -171.75990949 273.06846091 -165.76171875 263.94140625 C-178.21205024 257.21233543 -190.84154598 250.92923118 -203.61987305 244.85302734 C-226.07440959 234.13390128 -226.07440959 234.13390128 -230.19921875 224.62890625 C-231.12148192 218.58295878 -230.91559442 213.29531262 -228.19921875 207.75390625 C-222.50129131 201.17937459 -215.94772263 196.65895547 -208.55761719 192.14794922 C-202.35572095 188.35567964 -196.30132271 184.36140068 -190.26171875 180.31640625 C-189.32303955 179.68790771 -188.38436035 179.05940918 -187.41723633 178.41186523 C-185.19747973 176.92356067 -182.97890133 175.43354167 -180.76171875 173.94140625 C-181.48089478 172.64722778 -181.48089478 172.64722778 -182.21459961 171.3269043 C-183.99319281 168.12470223 -185.76845789 164.92066544 -187.54272461 161.71606445 C-188.31102329 160.32949376 -189.08022296 158.94342191 -189.8503418 157.55786133 C-190.95729165 155.56592256 -192.06098626 153.57221085 -193.1640625 151.578125 C-193.50888168 150.95926926 -193.85370087 150.34041351 -194.20896912 149.70280457 C-197.57211701 143.60804092 -198.48854378 138.84112556 -197.76171875 131.94140625 C-195.99619208 126.11012387 -192.86335176 122.31040918 -187.76171875 118.94140625 C-180.9408158 116.03249176 -173.72944971 114.90106711 -166.44921875 113.75390625 C-164.84336914 113.48803711 -164.84336914 113.48803711 -163.20507812 113.21679688 C-158.97987794 112.53155777 -155.05263539 111.94140625 -150.76171875 111.94140625 C-150.97025482 111.20748657 -151.17879089 110.47356689 -151.39364624 109.71740723 C-153.36623973 102.77423255 -155.33762109 95.83071537 -157.30766869 88.88681793 C-158.32033785 85.31758661 -159.33346223 81.74848586 -160.34765625 78.1796875 C-161.32782575 74.73055087 -162.30676118 71.28106611 -163.28487015 67.8313446 C-163.65678314 66.52043896 -164.02912797 65.20965575 -164.40192795 63.89900208 C-171.34582408 39.48249116 -171.34582408 39.48249116 -167.59765625 31.4453125 C-163.94153215 25.49189117 -160.24798197 22.1090638 -153.48046875 20.34765625 C-142.34255641 18.51483523 -132.00623151 25.1039299 -122.32421875 29.87890625 C-119.93831005 31.04207398 -117.55180437 32.20389329 -115.1640625 33.36328125 C-114.555625 33.6591362 -113.9471875 33.95499115 -113.3203125 34.2598114 C-106.71356584 37.46460826 -100.0533106 40.55060528 -93.38671875 43.62890625 C-81.80376592 48.98134683 -70.26605605 54.42212659 -58.76171875 59.94140625 C-53.9667657 53.01241743 -49.73872813 45.82483435 -45.57421875 38.50390625 C-44.24741755 36.19583689 -42.91963384 33.88837547 -41.58984375 31.58203125 C-40.94080078 30.45603516 -40.29175781 29.33003906 -39.62304688 28.16992188 C-39.00880859 27.10451172 -38.39457031 26.03910156 -37.76171875 24.94140625 C-37.22224609 24.00232422 -36.68277344 23.06324219 -36.12695312 22.09570312 C-28.02580352 8.06842073 -18.96499382 -7.26946722 0 0 Z M-8.76171875 26.94140625 C-10.17011714 29.01364803 -11.44165818 31.07191074 -12.69140625 33.23828125 C-13.07807968 33.89509384 -13.46475311 34.55190643 -13.86314392 35.22862244 C-14.69476361 36.64322426 -15.5230231 38.05980567 -16.34829712 39.4781189 C-17.6359395 41.69006763 -18.93309188 43.89616161 -20.2331543 46.10083008 C-24.00443204 52.50157627 -27.7490277 58.91743405 -31.4765625 65.34375 C-32.50908008 67.10548897 -33.54162905 68.86720955 -34.57421875 70.62890625 C-35.24590088 71.80888184 -35.24590088 71.80888184 -35.93115234 73.01269531 C-39.39163763 78.89958837 -43.31876249 83.23194873 -49.76171875 85.94140625 C-61.83429909 88.30093191 -71.49493295 82.50670973 -81.88671875 77.25390625 C-83.66032378 76.3809075 -85.4351588 75.51040341 -87.21118164 74.64233398 C-90.74926308 72.90896758 -94.28053644 71.16287593 -97.80615234 69.40429688 C-103.43338073 66.60037148 -109.0938343 63.8685786 -114.76318359 61.15112305 C-116.97791739 60.08939156 -119.19064671 59.02346362 -121.40087891 57.95239258 C-130.71504577 52.59051784 -130.71504577 52.59051784 -140.76171875 49.94140625 C-139.45234547 57.19814027 -137.6229673 64.19128311 -135.50390625 71.25 C-134.87176925 73.40020652 -134.24027846 75.5506031 -133.609375 77.70117188 C-132.62403775 81.04478888 -131.63432971 84.38687493 -130.63330078 87.72583008 C-129.66001988 90.98007353 -128.70565896 94.23940516 -127.75390625 97.5 C-127.45394745 98.4836705 -127.15398865 99.467341 -126.84494019 100.4808197 C-124.67186401 108.00315093 -123.07818091 116.25698761 -125.94921875 123.81640625 C-129.65628988 130.2079082 -133.78978813 132.9021543 -140.76171875 134.94140625 C-145.5716179 135.98078346 -150.40955915 136.8128164 -155.26171875 137.62890625 C-157.21078125 137.96631836 -157.21078125 137.96631836 -159.19921875 138.31054688 C-162.38559062 138.86113319 -165.57301184 139.40453863 -168.76171875 139.94140625 C-167.53245106 143.93443689 -166.08732735 147.41322033 -163.9765625 151.015625 C-163.44611328 151.93021484 -162.91566406 152.84480469 -162.36914062 153.78710938 C-161.81806641 154.72490234 -161.26699219 155.66269531 -160.69921875 156.62890625 C-159.60177412 158.50641605 -158.50661476 160.38526405 -157.4140625 162.265625 C-156.92929443 163.09151123 -156.44452637 163.91739746 -155.94506836 164.76831055 C-152.97477464 170.22293907 -153.11471193 175.88727105 -153.76171875 181.94140625 C-156.20701477 189.35215032 -162.46605685 192.96726967 -168.76171875 196.94140625 C-170.07544544 197.79499001 -171.38785667 198.65060043 -172.69921875 199.5078125 C-177.04032484 202.33946665 -181.3999041 205.14179833 -185.76171875 207.94140625 C-187.16418282 208.84356299 -188.56653026 209.74590106 -189.96875 210.6484375 C-193.23175122 212.74815699 -196.4962606 214.84550997 -199.76171875 216.94140625 C-197.41797045 219.56604337 -195.06285362 220.96100275 -191.91064453 222.49755859 C-190.92597198 222.98171234 -189.94129944 223.46586609 -188.92678833 223.96469116 C-187.86426849 224.48036652 -186.80174866 224.99604187 -185.70703125 225.52734375 C-183.46083471 226.63390595 -181.21474424 227.7406835 -178.96875 228.84765625 C-175.42640065 230.58468958 -171.88251146 232.31845811 -168.33642578 234.04785156 C-164.91393502 235.71979903 -161.49774567 237.40410575 -158.08203125 239.08984375 C-156.49432419 239.85728409 -156.49432419 239.85728409 -154.87454224 240.64022827 C-147.81853868 244.13241259 -142.14136026 247.50619494 -138.76171875 254.94140625 C-137.09728609 261.49671026 -137.65499928 266.94791205 -140.76171875 272.94140625 C-143.46690087 277.06900727 -146.37451476 281.01938672 -149.32080078 284.9765625 C-151.85578705 288.43328386 -154.27540446 291.96876985 -156.69921875 295.50390625 C-157.15941406 296.17043213 -157.61960938 296.83695801 -158.09375 297.52368164 C-160.43639369 300.93325052 -162.68053323 304.36286613 -164.76171875 307.94140625 C-162.54330036 308.36496367 -160.3248202 308.78818772 -158.10620117 309.21069336 C-156.19710416 309.57527501 -154.28841584 309.94200283 -152.38012695 310.31079102 C-147.95610992 311.16220561 -143.53598023 311.99489544 -139.0859375 312.69921875 C-123.26645198 315.24775171 -123.26645198 315.24775171 -118.4375 321.71484375 C-115.27908805 326.96778152 -113.99243476 331.85938014 -114.76171875 337.94140625 C-117.10486113 344.63289555 -120.78299088 350.87868118 -124.19921875 357.06640625 C-124.72217529 358.01942627 -125.24513184 358.97244629 -125.78393555 359.9543457 C-130.02861835 367.66672922 -134.35307007 375.33323468 -138.69750977 382.98974609 C-142.88256703 390.36903673 -147.02034111 397.77360088 -151.13671875 405.19140625 C-151.76006104 406.31442139 -152.38340332 407.43743652 -153.02563477 408.59448242 C-155.91551704 413.80354814 -158.80246017 419.0142297 -161.68569946 424.22697449 C-163.29317572 427.13244843 -164.90250402 430.03689479 -166.51171875 432.94140625 C-167.12901855 434.05733154 -167.74631836 435.17325684 -168.38232422 436.32299805 C-171.26186701 441.51162264 -174.17182688 446.67587989 -177.18359375 451.7890625 C-177.70598633 452.67658203 -178.22837891 453.56410156 -178.76660156 454.47851562 C-179.73750585 456.11846238 -180.71562834 457.75416494 -181.70214844 459.38476562 C-182.78115031 461.20315992 -183.78101153 463.06816943 -184.76171875 464.94140625 C-184.43171875 465.60140625 -184.10171875 466.26140625 -183.76171875 466.94140625 C-173.30148591 459.82114508 -162.8800496 452.64962157 -152.52172852 445.38183594 C-146.17452399 440.92847162 -139.81544425 436.49253582 -133.44921875 432.06640625 C-132.0091748 431.06516724 -132.0091748 431.06516724 -130.54003906 430.04370117 C-128.58843298 428.68693393 -126.63677265 427.33024472 -124.68505859 425.97363281 C-120.83270479 423.29558095 -116.98123097 420.61626541 -113.12988281 417.93676758 C-111.2165908 416.60570394 -109.30317918 415.27481221 -107.38964844 413.9440918 C-102.58308008 410.60129744 -97.77819461 407.25613169 -92.9765625 403.90625 C-83.17762552 397.07260685 -73.36282456 390.2621758 -63.51171875 383.50390625 C-62.10877563 382.53602173 -62.10877563 382.53602173 -60.67749023 381.54858398 C-59.38113647 380.6621521 -59.38113647 380.6621521 -58.05859375 379.7578125 C-57.29901367 379.23646729 -56.53943359 378.71512207 -55.75683594 378.17797852 C-51.05780144 375.26552015 -46.11138166 375.37786609 -40.76171875 375.94140625 C-35.02391899 377.67862936 -30.96624806 380.83887394 -27.76171875 385.94140625 C-26.26323245 389.51171897 -25.16036165 393.1652377 -24.07421875 396.87890625 C-23.63239258 398.32426758 -23.63239258 398.32426758 -23.18164062 399.79882812 C-21.65133525 404.82992198 -20.1905554 409.88064984 -18.76171875 414.94140625 C-14.61033556 414.27718494 -11.30168806 412.07314737 -7.76171875 409.94140625 C-7.04185791 409.51279297 -6.32199707 409.08417969 -5.58032227 408.64257812 C-2.96949421 407.08310642 -0.36516803 405.51316596 2.23828125 403.94140625 C3.31996582 403.28914063 4.40165039 402.636875 5.51611328 401.96484375 C23.70991932 391.00018453 23.70991932 391.00018453 41.70922852 379.72070312 C48.15589611 375.62967184 53.69310283 374.72714335 61.23828125 375.94140625 C65.98173592 377.93024148 70.22284999 380.54113082 74.5703125 383.27490234 C77.76141735 385.26817483 80.98273192 387.20958487 84.20703125 389.1484375 C89.11126496 392.10221473 94.00869007 395.06666866 98.89453125 398.05078125 C99.99152344 398.72044922 101.08851563 399.39011719 102.21875 400.08007812 C104.81540062 401.68073015 107.38855781 403.31181988 109.95703125 404.95703125 C112.88440716 407.11390249 112.88440716 407.11390249 115.23828125 406.94140625 C115.4492041 406.01392578 115.66012695 405.08644531 115.87744141 404.13085938 C116.67408003 400.65211098 117.49662539 397.17990176 118.32666016 393.70898438 C118.68063194 392.21322007 119.02779497 390.71582587 119.36767578 389.21679688 C123.56199037 370.76673271 123.56199037 370.76673271 132.11328125 365.00390625 C145.03232834 360.61143024 156.80140067 367.02310482 169.00390625 371.6015625 C170.74217682 372.24828163 170.74217682 372.24828163 172.51556396 372.9080658 C176.17443302 374.26989662 179.83145981 375.63658774 183.48828125 377.00390625 C187.15966108 378.37403663 190.83143644 379.74308828 194.50384521 381.11045837 C196.77619435 381.95679896 199.04792017 382.80481565 201.31890869 383.65480042 C207.25767118 385.86952608 213.21165798 387.97782997 219.23828125 389.94140625 C217.29758996 382.51232801 215.08115022 375.2330747 212.5859375 367.97265625 C212.24453232 366.97109497 211.90312714 365.96953369 211.55137634 364.93762207 C210.83440578 362.83629604 210.11584505 360.73551194 209.39575195 358.63525391 C208.30397502 355.45072193 207.2169862 352.26458792 206.13085938 349.078125 C205.42866416 347.0220402 204.72619915 344.96604752 204.0234375 342.91015625 C203.70351334 341.97337036 203.38358917 341.03658447 203.05397034 340.07141113 C201.13643581 334.48192851 199.13565212 328.93502272 197.02903748 323.41369629 C194.91083732 316.79116841 196.06234735 311.36364761 198.6796875 305.08203125 C203.40022248 298.59868997 210.45148934 296.58084477 217.81640625 294.49609375 C218.82362732 294.19953888 219.83084839 293.90298401 220.86859131 293.59744263 C224.07160889 292.65774249 227.27970771 291.73693427 230.48828125 290.81640625 C232.62795993 290.19132066 234.7672868 289.56502949 236.90625 288.9375 C246.32692771 286.18319636 255.76267804 283.50089508 265.23828125 280.94140625 C259.85652155 274.45746216 253.96294025 268.60497836 247.95898438 262.70117188 C243.76569391 258.5504169 239.77602379 254.32195005 235.93334961 249.84594727 C232.56259877 246.05864677 228.83309859 242.60890901 225.13671875 239.14257812 C219.95836585 234.11686226 216.84960298 229.22824081 216.67578125 221.75390625 C217.22458236 207.24987693 230.14467618 193.03502147 237.92333984 181.42675781 C238.99350756 179.82963531 240.06000482 178.23004552 241.12231445 176.62768555 C242.0974374 175.15693765 243.08133159 173.69195814 244.07495117 172.23364258 C245.20858179 170.51937704 246.23462212 168.73486466 247.23828125 166.94140625 C246.5075199 163.59930716 246.5075199 163.59930716 242.94702148 162.19555664 C241.48505138 161.54921654 240.01790073 160.91451867 238.546875 160.2890625 C237.76820572 159.94765732 236.98953644 159.60625214 236.18727112 159.25450134 C233.68770913 158.16085614 231.18210275 157.08195861 228.67578125 156.00390625 C226.19581723 154.92651119 223.71719749 153.84609997 221.23927307 152.76402283 C219.69690922 152.09166575 218.1531545 151.42248677 216.60777283 150.75709534 C213.00043406 149.1955072 209.41995486 147.58826833 205.87915039 145.88061523 C205.24779678 145.57614975 204.61644318 145.27168427 203.96595764 144.95799255 C199.83276569 142.52597094 197.71911587 139.07792444 195.86328125 134.69140625 C194.40397481 125.93556761 196.85050805 118.21869391 199.9140625 110.0703125 C200.28049362 109.06733627 200.64692474 108.06436005 201.02445984 107.0309906 C202.1889961 103.85116115 203.36951303 100.67755283 204.55078125 97.50390625 C205.33245648 95.37865075 206.11306481 93.25300253 206.89257812 91.12695312 C208.3349731 87.19748059 209.78351167 83.27040168 211.23950195 79.34594727 C211.56560455 78.46375519 211.89170715 77.58156311 212.22769165 76.67263794 C212.94246942 74.74087088 213.66072775 72.81039 214.38143921 70.88082886 C214.74822784 69.89011383 215.11501648 68.8993988 215.49291992 67.87866211 C215.99464973 66.53100014 215.99464973 66.53100014 216.5065155 65.15611267 C217.34285801 63.01364682 217.34285801 63.01364682 217.23828125 60.94140625 C213.06308377 62.23038562 209.35044107 63.80882919 205.51171875 65.890625 C203.85982544 66.78152832 203.85982544 66.78152832 202.17456055 67.69042969 C201.30436783 68.16409973 201.30436783 68.16409973 200.41659546 68.64733887 C198.58449672 69.64457404 196.7493498 70.63598094 194.91333008 71.62597656 C192.33599828 73.01643572 189.75995736 74.40923964 187.18505859 75.80419922 C181.37909558 78.94917822 175.56739664 82.08342886 169.7510376 85.20913696 C167.96264927 86.17156557 166.17633491 87.13776237 164.39013672 88.10424805 C146.25375634 97.86170053 146.25375634 97.86170053 137.09765625 95.35546875 C126.5010545 90.94695886 122.11187343 77.05793699 117.36328125 67.37890625 C116.66853398 65.97432965 115.97322548 64.57003051 115.27734375 63.16601562 C113.59117621 59.76097305 111.91262251 56.35227859 110.23828125 52.94140625 C106.41575778 52.53029827 106.41575778 52.53029827 104.59765625 54.2265625 C104.0665625 54.81308594 103.53546875 55.39960937 102.98828125 56.00390625 C99.98421002 59.18580833 96.8654955 62.06596993 93.54296875 64.91015625 C91.75795394 66.48338964 90.02780935 68.07982563 88.30859375 69.72265625 C87.79127686 70.21217773 87.27395996 70.70169922 86.7409668 71.20605469 C85.72473817 72.17044947 84.71532436 73.14209564 83.71411133 74.12207031 C79.00955608 78.55940238 73.85739745 81.36799674 67.30078125 81.37890625 C66.52863281 81.39824219 65.75648438 81.41757813 64.9609375 81.4375 C57.99545516 80.16832316 52.73474463 76.02929163 47.61328125 71.37890625 C46.39409766 70.30222464 45.17268226 69.22806573 43.94921875 68.15625 C43.33401367 67.61726074 42.71880859 67.07827148 42.08496094 66.52294922 C39.21253292 64.06292956 36.231856 61.75121653 33.23828125 59.44140625 C27.75302387 55.19391113 22.46335718 50.76122958 17.21801758 46.22192383 C12.32690527 41.99504519 7.32363246 37.93276594 2.23828125 33.94140625 C1.39910156 33.26722656 0.55992187 32.59304687 -0.3046875 31.8984375 C-1.11550781 31.25261719 -1.92632812 30.60679688 -2.76171875 29.94140625 C-3.48359375 29.36390625 -4.20546875 28.78640625 -4.94921875 28.19140625 C-6.66916645 26.75216193 -6.66916645 26.75216193 -8.76171875 26.94140625 Z " fill="#2F2F2F" transform="translate(235.76171875,14.05859375)"/>
<path d="M0 0 C5.94 0 11.88 0 18 0 C20.9233688 10.69899587 23.56269198 21.43377933 26.03710938 32.24487305 C26.6284079 34.8273841 27.22406684 37.40886149 27.8203125 39.99023438 C29.65878665 47.97353668 31.46158055 55.95224665 33 64 C33.325448 62.68298096 33.325448 62.68298096 33.6574707 61.33935547 C36.48564108 49.95587942 39.41559238 38.59983907 42.3737793 27.24951172 C43.19862887 24.08226756 44.02021418 20.9141867 44.84179688 17.74609375 C45.36698833 15.72911479 45.8923716 13.71218577 46.41796875 11.6953125 C46.6627446 10.74963409 46.90752045 9.80395569 47.15971375 8.82962036 C47.38697647 7.9604599 47.6142392 7.09129944 47.84838867 6.19580078 C48.04728195 5.43131622 48.24617523 4.66683167 48.45109558 3.87918091 C49 2 49 2 50 0 C55.94 0 61.88 0 68 0 C69.80423488 6.68331968 71.60033727 13.36875636 73.3894043 20.05615234 C73.99727807 22.32398294 74.60725074 24.59125215 75.21948242 26.85791016 C76.10647817 30.1433482 76.98553759 33.4308296 77.86328125 36.71875 C78.26659416 38.20260193 78.26659416 38.20260193 78.67805481 39.71643066 C80.91118653 48.13057592 82.38103495 56.36551972 84 65 C88.95 43.55 93.9 22.1 99 0 C105.27 0 111.54 0 118 0 C113.96392668 17.20892679 109.65973961 34.34312063 105.29797363 51.47149658 C104.55779307 54.38036166 103.81964764 57.28974166 103.08149338 60.19912148 C102.3668806 63.01483495 101.65116707 65.83026768 100.93509674 68.64561081 C100.59510269 69.98277467 100.25541267 71.32001587 99.91603851 72.65733719 C99.44610145 74.50832843 98.97455429 76.35891067 98.50292969 78.20947266 C98.23599304 79.25865875 97.9690564 80.30784485 97.69403076 81.38882446 C97.19215792 83.27703773 96.61783701 85.14648898 96 87 C88.74 87 81.48 87 74 87 C72.5021559 81.36758969 71.00747269 75.73450605 69.52001953 70.09936523 C69.01554861 68.1916846 68.50942467 66.28444015 68.00146484 64.37768555 C64.61307137 51.65275838 61.5738813 38.91516856 59 26 C56.97365099 34.0856089 54.95535662 42.1731165 52.95315552 50.26473999 C51.98865842 54.16064947 51.02120488 58.0558222 50.0534668 61.95092773 C49.55290092 63.96852985 49.0535834 65.98644204 48.55541992 68.00463867 C47.82797279 70.95052821 47.09608738 73.89528341 46.36328125 76.83984375 C46.14037918 77.74693588 45.91747711 78.65402802 45.68782043 79.58860779 C45.37695747 80.83239952 45.37695747 80.83239952 45.05981445 82.10131836 C44.87868607 82.83249374 44.69755768 83.56366913 44.51094055 84.31700134 C44 86 44 86 43 87 C41.43827255 87.08685603 39.87270656 87.10702219 38.30859375 87.09765625 C37.36435547 87.09443359 36.42011719 87.09121094 35.44726562 87.08789062 C34.45404297 87.07951172 33.46082031 87.07113281 32.4375 87.0625 C31.44041016 87.05798828 30.44332031 87.05347656 29.41601562 87.04882812 C26.94394862 87.03700005 24.47201335 87.01967958 22 87 C18.94173906 78.42464856 16.77615749 69.63797888 14.55078125 60.8203125 C14.12927613 59.15879531 13.7075759 57.49732761 13.28569031 55.83590698 C12.40691964 52.37195395 11.53059351 48.90739426 10.65600586 45.44238281 C9.53429011 40.99917392 8.40627535 36.55759209 7.27644062 32.11644173 C6.40658215 28.6942274 5.54010088 25.27116502 4.67464256 21.84783554 C4.25984764 20.20888308 3.84398132 18.5702014 3.42702675 16.93179703 C2.84674619 14.64955958 2.27103566 12.36621727 1.6965332 10.08251953 C1.43710686 9.0679493 1.43710686 9.0679493 1.17243958 8.03288269 C0.48000354 5.26293681 0 2.86986613 0 0 Z " fill="#F9F9F9" transform="translate(289,198)"/>
<path d="M0 0 C7.92 0 15.84 0 24 0 C25.52418401 2.64191895 27.04836118 5.28384186 28.57250977 7.92578125 C29.91272941 10.24876287 31.25304442 12.57168918 32.59350586 14.89453125 C35.76804018 20.39588274 38.94188764 25.89762129 42.11073303 31.4022522 C43.11578067 33.14804826 44.12119178 34.89363451 45.12670898 36.63916016 C46.38474962 38.82331798 47.64211197 41.00786668 48.89868164 43.19287109 C49.47996826 44.20172363 50.06125488 45.21057617 50.66015625 46.25 C51.16168213 47.12140625 51.66320801 47.9928125 52.17993164 48.890625 C54.75033453 53.28185923 57.38213613 57.63689355 60 62 C60.33 41.54 60.66 21.08 61 0 C66.28 0 71.56 0 77 0 C77 28.71 77 57.42 77 87 C69.08 87 61.16 87 53 87 C52.15179688 85.47375 51.30359375 83.9475 50.4296875 82.375 C43.71654097 70.32534153 36.91101016 58.34391911 29.93261719 46.4453125 C25.18923495 38.35095149 20.56689748 30.19483815 16 22 C16.0714624 22.78189697 16.1429248 23.56379395 16.21655273 24.36938477 C17.24001003 37.2184665 17.11090413 50.05560913 17.0625 62.9375 C17.05747365 65.27799383 17.05291276 67.61848871 17.04882812 69.95898438 C17.03791546 75.63934923 17.02071371 81.31966277 17 87 C11.39 87 5.78 87 0 87 C0 58.29 0 29.58 0 0 Z " fill="#F9F9F9" transform="translate(132,198)"/>
<path d="M0 0 C16.5 0 33 0 50 0 C50 4.95 50 9.9 50 15 C39.77 15 29.54 15 19 15 C19 21.27 19 27.54 19 34 C28.57 34 38.14 34 48 34 C48 38.95 48 43.9 48 49 C38.43 49 28.86 49 19 49 C19 56.59 19 64.18 19 72 C29.23 72 39.46 72 50 72 C50 76.95 50 81.9 50 87 C33.5 87 17 87 0 87 C0 58.29 0 29.58 0 0 Z " fill="#FAFAFA" transform="translate(228,198)"/>
</svg>
